#!OML:ASF \\Waltz\H\Terrain\Patient Classification 1\Animal2\Wednesday\Animal2.ASF
:FULLY-SPECIFIED
:DEGREES
1877
root 11.0479 17.5201 -18.8419 352.391 -262.399 -368.556
lowerback 2.26409 -5.76913 1.59247
upperback -2.86958 -7.63993 -0.46371
thorax -4.49853 -3.84978 -0.875421
lowerneck 5.36834 8.75051 16.525
upperneck -3.79205 12.5067 -20.2542
head 0.417745 6.59569 -8.86898
rclavicle 1.89964e-014 -3.67752e-015
rhumerus -74.1173 48.3407 -91.2986
rradius 63.7847
rwrist 29.4127
rhand 10.0438 31.9823
rfingers 7.12502
rthumb 35.1679 5.46561
lclavicle 1.89964e-014 -3.67752e-015
lhumerus -16.0859 -72.965 58.9454
lradius 82.9614
lwrist -8.57077
lhand -19.7705 4.77752
lfingers 7.12502
lthumb 6.56141 34.6559
rfemur -10.2081 -15.2871 23.264
rtibia 33.6882
rfoot -28.9068 -12.4557
rtoes 34.2795
lfemur -7.60351 19.5983 -13.408
ltibia 43.6294
lfoot -22.2846 9.08256
ltoes -21.3415
1878
root 11.0571 17.5355 -18.8333 350.319 -261.922 -370.891
lowerback 1.8762 -5.96907 1.16677
upperback -2.99923 -7.92538 -0.463769
thorax -4.36589 -3.97833 -0.662978
lowerneck 5.14696 8.90639 16.482
upperneck -3.30806 12.7512 -20.2033
head 0.631113 6.70114 -8.80125
rclavicle -2.01891e-014 6.36111e-015
rhumerus -75.0633 48.6637 -90.1488
rradius 64.2786
rwrist 29.182
rhand 10.1231 32.6259
rfingers 7.12502
rthumb 35.2431 6.12695
lclavicle -2.01891e-014 6.36111e-015
lhumerus -11.1811 -73.0522 53.3284
lradius 84.4436
lwrist -7.74093
lhand -19.3881 5.26798
lfingers 7.12502
lthumb 6.9305 35.1345
rfemur -10.4521 -15.4375 22.9483
rtibia 33.7313
rfoot -28.9562 -12.7847
rtoes 33.9367
lfemur -6.96302 19.0275 -13.9265
ltibia 42.2422
lfoot -21.9828 9.80773
ltoes -23.2442
1879
root 11.063 17.5405 -18.8222 348.327 -261.475 -373.12
lowerback 1.59251 -6.06994 0.648051
upperback -3.18274 -8.0757 -0.414381
thorax -4.32136 -4.0351 -0.346693
lowerneck 5.07373 8.90084 16.2559
upperneck -2.91531 12.7757 -20.1949
head 0.742803 6.70963 -8.74561
rclavicle 2.4202e-014 1.98785e-015
rhumerus -76.2224 48.9295 -89.1124
rradius 64.7353
rwrist 28.6686
rhand 10.074 32.5137
rfingers 7.12502
rthumb 35.1965 6.00372
lclavicle 2.4202e-014 1.98785e-015
lhumerus -6.51758 -73.1049 48.1578
lradius 85.8335
lwrist -7.09275
lhand -19.1115 4.76655
lfingers 7.12502
lthumb 7.19753 34.6241
rfemur -10.7031 -15.4365 22.6054
rtibia 33.8161
rfoot -29.256 -12.7618
rtoes 34.7488
lfemur -6.33782 18.4448 -14.4165
ltibia 40.8342
lfoot -21.8009 9.77532
ltoes -21.9609
1880
root 11.0631 17.5427 -18.8135 346.415 -261.076 -375.289
lowerback 1.34192 -6.21092 0.137484
upperback -3.35984 -8.27727 -0.376517
thorax -4.2898 -4.11715 -0.0421832
lowerneck 5.19568 8.87997 16.2544
upperneck -2.77086 12.7909 -20.3587
head 0.777624 6.72725 -8.80153
rclavicle 6.8208e-014 7.95139e-015
rhumerus -77.1306 49.2592 -88.0314
rradius 65.2303
rwrist 28.4681
rhand 10.0211 32.1701
rfingers 7.12502
rthumb 35.1463 5.64835
lclavicle 6.8208e-014 7.95139e-015
lhumerus -2.31289 -72.9454 43.2211
lradius 87.1601
lwrist -6.55496
lhand -19.6774 3.98711
lfingers 7.12502
lthumb 6.65125 33.8627
rfemur -11.0077 -15.4071 22.2529
rtibia 33.9236
rfoot -29.606 -12.8133
rtoes 35.0952
lfemur -5.77283 17.9506 -14.9201
ltibia 39.4521
lfoot -21.2699 9.81629
ltoes -21.4732
1881
root 11.0648 17.5507 -18.8042 345.756 -260.739 -376.254
lowerback 0.975385 -6.52703 -0.21731
upperback -3.44832 -8.70439 -0.325398
thorax -4.11878 -4.31809 0.179922
lowerneck 5.41103 9.04296 16.5212
upperneck -2.89292 13.05 -20.5435
head 0.788112 6.8697 -8.9022
rclavicle 6.67916e-014 8.15017e-015
rhumerus -77.5287 50.0328 -86.9924
rradius 65.5948
rwrist 28.2347
rhand 9.9755 32.3041
rfingers 7.12502
rthumb 35.1031 5.77215
lclavicle 6.67916e-014 8.15017e-015
lhumerus 1.24395 -72.4034 38.3702
lradius 88.4546
lwrist -5.91734
lhand -21.1848 3.04823
lfingers 7.12502
lthumb 5.19594 32.9645
rfemur -11.3454 -15.4216 22.1147
rtibia 34.0062
rfoot -29.9361 -12.7277
rtoes 35.5049
lfemur -5.35993 17.4712 -15.2536
ltibia 38.1674
lfoot -20.5254 9.71968
ltoes -23.1199
1882
root 11.0664 17.5545 -18.7975 346.348 -260.46 -375.787
lowerback 0.756891 -6.78356 -0.47462
upperback -3.44921 -9.04412 -0.097079
thorax -3.92087 -4.47744 0.53145
lowerneck 5.54889 9.11629 16.4787
upperneck -3.03494 13.1544 -20.69
head 0.752966 6.93557 -8.94779
rclavicle -2.57923e-014 6.75868e-015
rhumerus -77.7057 50.8443 -85.5061
rradius 66.0177
rwrist 27.7789
rhand 10.0221 32.5361
rfingers 7.12502
rthumb 35.1473 6.01454
lclavicle -2.57923e-014 6.75868e-015
lhumerus 4.96874 -71.8172 33.5682
lradius 89.7413
lwrist -5.24337
lhand -22.9367 1.43774
lfingers 7.12502
lthumb 3.50427 31.3887
rfemur -11.463 -15.5276 22.1866
rtibia 34.0432
rfoot -30.0557 -12.8833
rtoes 35.1777
lfemur -4.88579 16.9394 -15.2744
ltibia 37.0097
lfoot -19.7472 9.08563
ltoes -22.7651
1883
root 11.0655 17.5533 -18.7918 346.921 -260.258 -375.211
lowerback 0.678427 -6.91955 -0.732755
upperback -3.44889 -9.22259 0.19018
thorax -3.78728 -4.55549 0.951486
lowerneck 5.57867 9.03071 16.2229
upperneck -3.0083 13.0333 -20.7697
head 0.720418 6.88375 -8.94298
rclavicle 3.04389e-014 1.98785e-015
rhumerus -77.804 51.3419 -83.7465
rradius 66.4536
rwrist 27.5346
rhand 10.2729 32.727
rfingers 7.12502
rthumb 35.3851 6.26179
lclavicle 3.04389e-014 1.98785e-015
lhumerus 8.76941 -71.3198 28.9429
lradius 90.9875
lwrist -4.35717
lhand -23.0153 0.880146
lfingers 7.12502
lthumb 3.42831 30.8323
rfemur -11.4339 -15.5851 22.2699
rtibia 34.0326
rfoot -30.0001 -13.2373
rtoes 34.5435
lfemur -4.3594 16.3334 -15.2317
ltibia 35.9526
lfoot -18.8722 8.32964
ltoes -20.861
